<svg width="45" height="30" viewBox="0 0 60 50" fill="none" xmlns="http://www.w3.org/2000/svg">
  <path fill-rule="evenodd" clip-rule="evenodd" d="M7.35667 13.125H7.08333C5.27102 13.125 3.53294 13.643 2.25144 14.5651C0.969938 15.4871 0.25 16.7377 0.25 18.0417V22.9583C0.25 24.2623 0.969938 25.5129 2.25144 26.4349C3.53294 27.357 5.27102 27.875 7.08333 27.875H7.35667C8.34257 27.8747 9.31689 28.0279 10.2127 28.3241C11.1086 28.6203 11.9048 29.0525 12.5466 29.5909L24.9901 40.0388C27.0538 41.7695 31 40.7198 31 38.4385V2.56154C31 0.280211 27.0538 -0.769498 24.9867 0.963627L12.55 11.4066C11.9081 11.9459 11.1115 12.3787 10.2151 12.6753C9.31856 12.9719 8.34341 13.1254 7.35667 13.125ZM53.673 1.50938C53.3496 1.28008 52.966 1.09946 52.5445 0.978062C52.123 0.856663 51.6721 0.796923 51.2182 0.802332C50.7642 0.807741 50.3163 0.878191 49.9007 1.00957C49.485 1.14094 49.1099 1.3306 48.7973 1.56748C48.4846 1.80435 48.2407 2.08368 48.0798 2.38914C47.9189 2.6946 47.8443 3.02007 47.8602 3.34653C47.8761 3.673 47.9823 3.9939 48.1726 4.2905C48.3628 4.5871 48.6333 4.85344 48.9683 5.07396C61.4562 13.6093 61.4562 27.3907 48.9683 35.926C48.6333 36.1466 48.3628 36.4129 48.1726 36.7095C47.9823 37.0061 47.8761 37.327 47.8602 37.6535C47.8443 37.9799 47.9189 38.3054 48.0798 38.6109C48.2407 38.9163 48.4846 39.1957 48.7973 39.4325C49.1099 39.6694 49.485 39.8591 49.9007 39.9904C50.3163 40.1218 50.7642 40.1923 51.2182 40.1977C51.6721 40.2031 52.123 40.1433 52.5445 40.0219C52.966 39.9005 53.3496 39.7199 53.673 39.4906C68.9968 29.0181 68.9968 11.9819 53.673 1.50938ZM43.6041 8.39271C42.9471 7.94349 42.069 7.70044 41.163 7.71704C40.257 7.73364 39.3973 8.00852 38.7729 8.48121C38.1486 8.9539 37.8108 9.58569 37.8339 10.2376C37.8569 10.8895 38.239 11.5081 38.8959 11.9573C45.8215 16.6896 45.8215 24.3104 38.8959 29.0427C38.5706 29.2651 38.3094 29.5315 38.1272 29.8266C37.9449 30.1216 37.8453 30.4396 37.8339 30.7624C37.8224 31.0852 37.8995 31.4065 38.0606 31.7078C38.2217 32.0092 38.4638 32.2847 38.7729 32.5188C39.3973 32.9915 40.257 33.2664 41.163 33.283C41.6116 33.2912 42.0581 33.2357 42.477 33.1198C42.8958 33.0039 43.2788 32.8297 43.6041 32.6073C53.3655 25.9354 53.3655 15.0646 43.6041 8.39271Z" fill="black"/>
</svg>
