<svg width="200" height="200" viewBox="0 0 353 240" fill="none" xmlns="http://www.w3.org/2000/svg">
  <path d="M335.427 1.74487H18.0048C9.57452 1.74487 2.74023 7.59939 2.74023 14.8213V257.554C2.74023 264.776 9.57452 270.63 18.0048 270.63H335.427C343.858 270.63 350.692 264.776 350.692 257.554V14.8213C350.692 7.59939 343.858 1.74487 335.427 1.74487Z" fill="#1DCDFF"/>
  <path d="M350.694 170.04V254.508C350.694 263.403 343.233 270.61 334.031 270.61H19.3751C10.1728 270.61 2.71191 263.382 2.71191 254.508V205.661C23.925 219.125 48.0728 228.211 72.8352 233.853C102.738 240.673 133.611 242.665 164.334 242.955C201.059 243.311 238.41 241.174 272.99 229.222C304.725 218.268 334.109 198.124 350.694 170.04Z" fill="#1AB5E1"/>
  <path d="M128.543 2.4212C95.7657 7.74366 50.2363 2.60705 21.9424 22.1417C8.52768 31.4031 5.2192 49.3632 3.05566 64.2156L3.10388 22.6425C3.10388 17.32 3.29069 11.5019 6.85235 7.43908C11.2576 2.4212 18.9895 2.03402 25.7933 2.03402C59.2157 2.06499 95.7717 -1.45579 128.543 2.4212Z" fill="#4ED9FF"/>
  <path d="M335.104 273.016H17.6756C12.9889 273.011 8.49624 271.415 5.18233 268.576C1.86854 265.738 0.00476085 261.888 0 257.874V15.1414C0.00476085 11.1269 1.86854 7.27806 5.18233 4.43935C8.49624 1.60067 12.9889 0.00409992 17.6756 0H335.104C339.79 0.00409992 344.283 1.60067 347.596 4.43935C350.91 7.27806 352.774 11.1269 352.779 15.1414V257.879C352.772 261.893 350.908 265.741 347.595 268.578C344.281 271.416 339.789 273.011 335.104 273.016ZM17.6756 4.12995C14.2671 4.13269 10.9996 5.29372 8.58966 7.35818C6.1797 9.42264 4.82431 12.2219 4.82111 15.1414V257.879C4.82431 260.799 6.1797 263.598 8.58966 265.663C10.9996 267.727 14.2671 268.888 17.6756 268.891H335.104C338.512 268.888 341.779 267.727 344.189 265.663C346.599 263.598 347.954 260.799 347.958 257.879V15.1414C347.954 12.2219 346.599 9.42264 344.189 7.35818C341.779 5.29372 338.512 4.13269 335.104 4.12995H17.6756Z" fill="#314E5D"/>
  <path d="M311.034 19.0803H43.8118C38.5332 19.0803 34.2539 22.746 34.2539 27.2679V242.413C34.2539 246.934 38.5332 250.6 43.8118 250.6H311.034C316.313 250.6 320.592 246.934 320.592 242.413V27.2679C320.592 22.746 316.313 19.0803 311.034 19.0803Z" fill="white"/>
  <path d="M320.132 25.6469V70.6014H33.7759V25.6469C33.7759 22.1984 37.8738 19.4004 42.93 19.4004H310.978C316.034 19.4004 320.132 22.1984 320.132 25.6469Z" fill="#DCEAEF"/>
  <path d="M310.69 253.951H43.4801C40.3066 253.948 37.2645 252.867 35.0203 250.945C32.7767 249.023 31.5147 246.417 31.5117 243.698V26.8756C31.5165 24.1582 32.7791 21.5533 35.0227 19.6322C37.2663 17.7113 40.3078 16.6309 43.4801 16.6282H310.69C313.863 16.6309 316.906 17.7119 319.149 19.6341C321.393 21.5562 322.655 24.1624 322.659 26.8808V243.703C322.654 246.421 321.391 249.026 319.147 250.947C316.903 252.868 313.862 253.948 310.69 253.951ZM43.4801 20.7581C41.5854 20.7608 39.7691 21.4068 38.4294 22.5544C37.0897 23.7021 36.3358 25.2578 36.3328 26.8808V243.703C36.3377 245.325 37.0921 246.88 38.4318 248.026C39.7709 249.173 41.5866 249.818 43.4801 249.821H310.69C312.584 249.818 314.401 249.172 315.74 248.024C317.08 246.877 317.834 245.321 317.838 243.698V26.8756C317.833 25.2535 317.078 23.6991 315.739 22.5526C314.399 21.4061 312.584 20.7608 310.69 20.7581H43.4801Z" fill="#314E5D"/>
  <path d="M187.873 49.3477H66.0859V58.3613H187.873V49.3477Z" fill="white"/>
  <path d="M62.2866 92.7845H121.87V90.6421H62.2866V92.7845Z" fill="#CED5D8"/>
  <path d="M62.2866 97.503H191.969V95.3606H62.2866V97.503Z" fill="#CED5D8"/>
  <path d="M62.2866 102.221H121.87V100.079H62.2866V102.221Z" fill="#CED5D8"/>
  <path d="M62.2866 106.94H191.969V104.797H62.2866V106.94Z" fill="#CED5D8"/>
  <path d="M62.2866 111.658H121.87V109.516H62.2866V111.658Z" fill="#CED5D8"/>
  <path d="M62.2866 116.372H191.969V114.229H62.2866V116.372Z" fill="#CED5D8"/>
  <path d="M62.2866 135.421H121.87V133.279H62.2866V135.421Z" fill="#CED5D8"/>
  <path d="M62.2866 140.139H191.969V137.997H62.2866V140.139Z" fill="#CED5D8"/>
  <path d="M62.2866 144.858H121.87V142.715H62.2866V144.858Z" fill="#CED5D8"/>
  <path d="M62.2866 149.576H191.969V147.434H62.2866V149.576Z" fill="#CED5D8"/>
  <path d="M62.2866 154.295H121.87V152.152H62.2866V154.295Z" fill="#CED5D8"/>
  <path d="M62.2866 159.008H191.969V156.866H62.2866V159.008Z" fill="#CED5D8"/>
  <path d="M62.2866 178.058H121.87V175.916H62.2866V178.058Z" fill="#CED5D8"/>
  <path d="M62.2866 182.776H191.969V180.634H62.2866V182.776Z" fill="#CED5D8"/>
  <path d="M62.2866 187.494H121.87V185.352H62.2866V187.494Z" fill="#CED5D8"/>
  <path d="M62.2866 192.213H191.969V190.071H62.2866V192.213Z" fill="#CED5D8"/>
  <path d="M62.2866 196.931H121.87V194.789H62.2866V196.931Z" fill="#CED5D8"/>
  <path d="M62.2866 201.645H191.969V199.502H62.2866V201.645Z" fill="#CED5D8"/>
  <path d="M263.418 33.5145H308.146V29.0077H263.418V33.5145Z" fill="#F0F0F0"/>
  <path d="M212.519 33.5145H257.247V29.0077H212.519V33.5145Z" fill="#F0F0F0"/>
  <path d="M48.0054 35.6053C50.8076 35.6053 53.0796 33.6592 53.0796 31.2585C53.0796 28.8579 50.8076 26.9117 48.0054 26.9117C45.2031 26.9117 42.9312 28.8579 42.9312 31.2585C42.9312 33.6592 45.2031 35.6053 48.0054 35.6053Z" fill="#F0F0F0"/>
  <path d="M227.395 194.231L211.215 207.375L244.045 237.031L260.225 223.888L227.395 194.231Z" fill="#314E5D"/>
  <g opacity="0.5">
    <path opacity="0.5" d="M213.359 194.7C234.445 177.571 235.329 149.043 215.333 130.979C195.337 112.916 162.034 112.16 140.948 129.289C119.862 146.418 118.979 174.947 138.974 193.01C158.97 211.072 192.273 211.829 213.359 194.7Z" fill="#8BDDEB"/>
    <path opacity="0.5" d="M149.424 188.042C144.102 183.238 140.083 177.488 137.652 171.201C135.221 164.914 134.438 158.246 135.359 151.67C136.28 145.095 138.881 138.774 142.979 133.158C147.076 127.543 152.57 122.77 159.066 119.18C152.115 121.362 145.779 124.777 140.473 129.2C135.168 133.623 131.011 138.955 128.277 144.849C125.541 150.742 124.288 157.064 124.6 163.4C124.912 169.736 126.781 175.945 130.086 181.62C133.391 187.295 138.056 192.309 143.778 196.334C149.499 200.359 156.147 203.305 163.289 204.978C170.43 206.651 177.903 207.014 185.219 206.044C192.535 205.074 199.53 202.792 205.746 199.348C196.095 202.382 185.618 202.928 175.609 200.919C165.599 198.91 156.496 194.433 149.424 188.042Z" fill="#62D6F8"/>
  </g>
  <path d="M234.575 113.873C228.842 108.681 222.204 104.281 214.899 100.828C214.772 100.761 214.646 100.704 214.507 100.647C197.619 92.7686 178.011 90.2917 159.187 93.6597C140.364 97.0276 123.551 106.02 111.757 119.03C99.9612 132.04 93.9516 148.22 94.802 164.677C95.6523 181.134 103.307 196.795 116.398 208.862C116.584 209.043 116.777 209.218 117 209.378C122.986 214.799 129.956 219.354 137.641 222.868L137.858 222.966C154.84 230.66 174.461 232.936 193.22 229.387C211.978 225.837 228.655 216.695 240.274 203.589C251.893 190.483 257.699 174.267 256.655 157.834C255.611 141.402 247.786 125.822 234.575 113.873ZM214.754 130.982C221.916 137.45 226.677 145.592 228.437 154.378C230.196 163.165 228.874 172.201 224.638 180.344C220.403 188.486 213.443 195.371 204.641 200.125C195.838 204.88 185.587 207.292 175.184 207.056C164.781 206.82 154.693 203.946 146.197 198.799C137.7 193.651 131.176 186.462 127.45 178.138C123.723 169.814 122.962 160.731 125.262 152.037C127.562 143.342 132.82 135.428 140.371 129.293C145.384 125.22 151.286 122.033 157.737 119.913C164.189 117.794 171.065 116.784 177.972 116.941C184.88 117.099 191.683 118.42 197.994 120.83C204.305 123.24 210.001 126.691 214.754 130.987V130.982Z" fill="#E7E7E7"/>
  <path d="M240.26 202.068C226.501 213.247 208.601 219.937 189.677 220.975C170.753 222.013 152.003 217.333 136.693 207.749C121.382 198.166 110.48 184.285 105.884 168.525C101.288 152.766 103.291 136.124 111.542 121.498C104.872 129.276 100.168 138.16 97.7309 147.582C95.2939 157.005 95.1776 166.76 97.3887 176.223C99.6003 185.687 104.091 194.651 110.574 202.544C117.057 210.438 125.39 217.086 135.041 222.066C144.692 227.045 155.449 230.245 166.626 231.463C177.802 232.681 189.152 231.888 199.951 229.137C210.75 226.385 220.76 221.736 229.344 215.484C237.926 209.232 244.894 201.515 249.8 192.828C246.944 196.143 243.752 199.235 240.26 202.068Z" fill="#CED0D0"/>
  <path d="M176.457 233.482C162.583 233.487 148.93 230.509 136.749 224.819L136.448 224.68C118.758 216.342 105.181 202.81 98.2167 186.576C98.06 186.225 97.9094 185.858 97.7708 185.481C92.2699 171.922 91.6606 157.259 96.0237 143.399C100.387 129.54 109.519 117.126 122.232 107.774C134.945 98.4229 150.65 92.5667 167.303 90.9673C183.955 89.3685 200.784 92.101 215.599 98.8091C215.761 98.8762 215.924 98.9536 216.081 99.0311C231.676 106.213 244.2 117.458 251.841 131.14C259.484 144.822 261.848 160.231 258.591 175.14C255.335 190.048 246.627 203.684 233.728 214.073C220.828 224.463 204.406 231.068 186.835 232.934C183.392 233.298 179.926 233.481 176.457 233.482ZM176.596 94.612C164.045 94.6156 151.678 97.1917 140.527 102.125C129.376 107.058 119.764 114.206 112.494 122.97C105.225 131.734 100.509 141.861 98.7404 152.505C96.9717 163.149 98.2011 174.001 102.327 184.155V184.216C102.441 184.526 102.574 184.836 102.706 185.141C109.269 200.454 122.075 213.217 138.762 221.076L138.973 221.174C155.425 228.883 174.553 231.301 192.903 227.99C211.253 224.679 227.617 215.858 239.042 203.119C250.466 190.38 256.199 174.562 255.204 158.52C254.209 142.478 246.553 127.27 233.618 115.639C227.855 110.419 221.151 106.026 213.761 102.629L213.67 102.583L213.477 102.495L213.387 102.454C202.055 97.3073 189.423 94.6203 176.596 94.6275V94.612ZM176.596 209.12C176.096 209.12 175.602 209.12 175.101 209.12C160.591 208.951 146.748 203.873 136.592 194.994C126.435 186.114 120.791 174.154 120.889 161.723C120.988 149.292 126.822 137.399 137.118 128.638C147.414 119.878 161.337 114.961 175.849 114.961C190.36 114.961 204.283 119.878 214.58 128.638C224.876 137.399 230.709 149.292 230.808 161.723C230.907 174.154 225.262 186.114 215.106 194.994C204.95 203.873 191.106 208.951 176.596 209.12ZM176.53 118.974C163.68 118.951 151.316 123.178 142.017 130.775C133.59 137.621 128.195 146.758 126.751 156.63C125.307 166.501 127.903 176.497 134.097 184.912C140.291 193.328 149.7 199.643 160.72 202.783C171.74 205.922 183.69 205.691 194.534 202.13C205.378 198.568 214.445 191.895 220.189 183.249C225.934 174.602 228.002 164.518 226.039 154.712C224.077 144.906 218.207 135.986 209.429 129.472C200.65 122.959 189.508 119.254 177.898 118.989C177.452 118.989 177.002 118.989 176.548 118.989L176.53 118.974Z" fill="#314E5D"/>
  <path d="M240.328 218.586L240.323 218.59C233.455 224.17 233.167 233.462 239.68 239.346L288.409 283.365C294.922 289.248 305.77 289.495 312.638 283.915L312.643 283.912C319.511 278.332 319.8 269.039 313.286 263.156L264.557 219.137C258.044 213.254 247.196 213.007 240.328 218.586Z" fill="#426372"/>
  <path d="M300.137 290H299.6C297.034 289.951 294.505 289.466 292.159 288.573C289.813 287.681 287.696 286.399 285.933 284.801L237.209 240.776C235.442 239.18 234.06 237.302 233.141 235.248C232.221 233.194 231.783 231.006 231.851 228.807C231.919 226.609 232.492 224.443 233.537 222.434C234.582 220.425 236.079 218.612 237.941 217.098C239.805 215.585 241.997 214.401 244.394 213.613C246.792 212.826 249.346 212.45 251.913 212.509C254.48 212.566 257.008 213.057 259.353 213.953C261.699 214.848 263.814 216.13 265.581 217.726L314.311 261.736C317.866 264.964 319.785 269.266 319.647 273.703C319.509 278.14 317.326 282.349 313.576 285.41C309.954 288.367 305.14 290.012 300.137 290ZM251.389 216.642C248.513 216.647 245.702 217.374 243.301 218.731C240.901 220.089 239.017 222.019 237.881 224.283C236.746 226.546 236.408 229.045 236.909 231.471C237.411 233.898 238.73 236.145 240.704 237.937L289.428 281.952C292.123 284.37 295.825 285.777 299.728 285.866C303.629 285.956 307.414 284.719 310.255 282.427C313.078 280.118 314.721 276.946 314.825 273.604C314.929 270.261 313.485 267.019 310.809 264.585L262.086 220.57C260.71 219.326 259.051 218.335 257.211 217.66C255.372 216.984 253.391 216.638 251.389 216.642Z" fill="#314E5D"/>
  <g opacity="0.5">
    <path opacity="0.5" d="M256.754 224.091C262.78 228.428 267.438 233.822 273.067 238.489C274.742 239.878 277.285 237.689 275.622 236.3C269.994 231.654 265.335 226.239 259.309 221.902C257.537 220.627 254.97 222.806 256.754 224.091Z" fill="white"/>
    <path opacity="0.5" d="M246.353 223.116C247.318 222.603 248.404 222.279 249.531 222.167C250.659 222.055 251.803 222.156 252.88 222.465C255.115 223.023 256.074 220.034 253.844 219.476C252.3 219.059 250.671 218.929 249.064 219.094C247.458 219.26 245.911 219.718 244.527 220.436C242.532 221.469 244.346 224.138 246.335 223.11L246.353 223.116Z" fill="white"/>
  </g>
  <path d="M196.58 105.391C206.192 107.895 215.232 111.901 222.741 117.616C232.274 124.843 238.759 134.332 242.724 144.636C243.447 146.52 246.943 145.715 246.213 143.81C242.061 133.021 235.288 123.011 225.302 115.417C217.299 109.335 207.741 105.092 197.55 102.397C195.321 101.814 194.368 104.803 196.586 105.386L196.58 105.391Z" fill="white"/>
  <path d="M161.464 102.516C167.749 101.803 174.264 102.067 180.543 102.614C182.857 102.815 182.839 99.7177 180.543 99.5164C174.264 98.9691 167.749 98.7059 161.464 99.4183C159.192 99.6764 159.162 102.779 161.464 102.516Z" fill="white"/>
</svg>
